<?xml version="1.0" encoding="UTF-8"?> <svg xmlns="http://www.w3.org/2000/svg" width="71" height="71" viewBox="0 0 71 71" fill="none"> <path fill-rule="evenodd" clip-rule="evenodd" d="M0 35.5C0 15.8937 15.8936 0 35.5 0C55.1064 0 71 15.8937 71 35.5C71 55.1063 55.1064 71 35.5 71C15.8936 71 0 55.1063 0 35.5ZM12.7949 24H20.1976C20.4407 36.3738 25.8982 41.6151 30.2209 42.6958V24H37.1913V34.6717C41.46 34.2124 45.9448 29.3494 47.4577 24H54.4281C53.2664 30.5922 48.4033 35.4552 44.9452 37.4545C48.4033 39.0755 53.9418 43.3172 56.0492 50.99H48.3763C46.7283 45.8568 42.6217 41.8853 37.1913 41.3449V50.99H36.3538C21.5755 50.99 13.1461 40.8586 12.7949 24Z" fill="#654F43"></path> </svg> 